<svg width="181" height="57" viewBox="0 0 181 57" fill="none" xmlns="http://www.w3.org/2000/svg">
<path d="M71.9752 18.4143V23.5111C71.9752 24.2922 72.0533 24.8683 72.2095 25.2393C72.3853 25.5908 72.6782 25.8251 73.0883 25.9423C73.5179 26.0595 74.1916 26.1278 75.1094 26.1473V26.7917C72.7075 26.7332 70.9207 26.7039 69.749 26.7039C68.7726 26.7039 67.5424 26.7234 66.0582 26.7625L65.1209 26.7917V26.2059C65.7653 26.1669 66.234 26.0887 66.5269 25.9716C66.8394 25.8544 67.0444 25.6298 67.142 25.2979C67.2592 24.9659 67.3178 24.4289 67.3178 23.6868V9.15816C67.3178 8.41611 67.2592 7.87909 67.142 7.54712C67.0444 7.21515 66.8394 6.99058 66.5269 6.87341C66.234 6.75625 65.7653 6.67814 65.1209 6.63908V6.05325C66.1168 6.11183 67.6009 6.14112 69.5733 6.14112L72.8246 6.11183C73.2152 6.0923 73.6643 6.08254 74.172 6.08254C76.8083 6.08254 78.8197 6.60979 80.2061 7.66429C81.5926 8.69926 82.2858 10.0955 82.2858 11.853C82.2858 12.927 82.0124 13.962 81.4657 14.9579C80.9189 15.9343 79.9913 16.7545 78.683 17.4184C77.3941 18.0824 75.6757 18.4143 73.5276 18.4143H71.9752ZM73.7913 6.63908C73.264 6.63908 72.8734 6.70743 72.6196 6.84412C72.3853 6.98082 72.2193 7.22491 72.1216 7.57641C72.024 7.92791 71.9752 8.45516 71.9752 9.15816V17.8285H73.2347C74.8165 17.8285 75.91 17.3208 76.5154 16.3053C77.1207 15.2899 77.4234 13.9132 77.4234 12.1752C77.4234 10.281 77.1403 8.88478 76.574 7.9865C76.0272 7.08822 75.0996 6.63908 73.7913 6.63908ZM85.3505 4.09071C86.1706 4.09071 86.8151 4.29575 87.2837 4.70583C87.7719 5.09639 88.016 5.64316 88.016 6.34616C88.016 7.04916 87.7719 7.60571 87.2837 8.01579C86.8151 8.40634 86.1706 8.60162 85.3505 8.60162C84.5303 8.60162 83.8761 8.40634 83.3879 8.01579C82.9193 7.60571 82.6849 7.04916 82.6849 6.34616C82.6849 5.64316 82.9193 5.09639 83.3879 4.70583C83.8761 4.29575 84.5303 4.09071 85.3505 4.09071ZM87.6352 24.0676C87.6352 24.8683 87.7719 25.4248 88.0453 25.7372C88.3382 26.0302 88.8264 26.1766 89.5099 26.1766V26.7917C87.5571 26.7136 86.2585 26.6746 85.6141 26.6746C85.0087 26.6746 83.6516 26.7136 81.5426 26.7917V26.1766C82.2456 26.1766 82.7338 26.0302 83.0071 25.7372C83.2805 25.4248 83.4172 24.8683 83.4172 24.0676V14.8407C83.4172 13.9425 83.2805 13.2883 83.0071 12.8782C82.7338 12.4681 82.2456 12.2631 81.5426 12.2631V11.648C82.1674 11.7065 82.7728 11.7358 83.3586 11.7358C85.0966 11.7358 86.5221 11.5991 87.6352 11.3257V24.0676ZM96.3474 11.2379C97.07 11.2379 97.7534 11.316 98.3979 11.4722C99.0423 11.6284 99.5793 11.8432 100.009 12.1166C100.517 12.4291 100.907 12.8294 101.181 13.3176C101.473 13.7862 101.62 14.3037 101.62 14.87C101.62 15.5535 101.405 16.1198 100.976 16.569C100.546 16.9986 99.9894 17.2134 99.3059 17.2134C98.6224 17.2134 98.0756 17.0181 97.6656 16.6275C97.2555 16.237 97.0504 15.7097 97.0504 15.0458C97.0504 14.46 97.2359 13.9522 97.607 13.5226C97.978 13.093 98.4369 12.8001 98.9837 12.6439C98.8275 12.4291 98.5834 12.2631 98.2514 12.1459C97.9389 12.0092 97.5972 11.9409 97.2262 11.9409C96.0545 11.9409 95.1367 12.5853 94.4728 13.8741C93.8284 15.1434 93.5061 16.8131 93.5061 18.883C93.5061 20.9725 93.8772 22.4761 94.6192 23.3939C95.3613 24.3117 96.2889 24.7706 97.4019 24.7706C98.0659 24.7706 98.7298 24.5949 99.3938 24.2434C100.077 23.8919 100.692 23.2767 101.239 22.398L101.737 22.5737C101.347 23.8431 100.663 24.9366 99.6867 25.8544C98.7103 26.7527 97.4508 27.2018 95.9081 27.2018C93.8967 27.2018 92.2564 26.5379 90.9871 25.21C89.7178 23.8821 89.0831 21.9098 89.0831 19.2931C89.0831 17.5746 89.3955 16.1101 90.0204 14.8993C90.6453 13.6886 91.5045 12.7806 92.5981 12.1752C93.6917 11.5503 94.9414 11.2379 96.3474 11.2379ZM116.093 24.6535C116.405 25.1221 116.659 25.4736 116.854 25.708C117.05 25.9228 117.303 26.079 117.616 26.1766V26.7917C116.054 26.7136 115.028 26.6746 114.54 26.6746C113.896 26.6746 112.636 26.7136 110.762 26.7917V26.1766C111.035 26.1766 111.25 26.1278 111.406 26.0302C111.562 25.9325 111.64 25.7958 111.64 25.6201C111.64 25.5224 111.592 25.376 111.494 25.1807L108.594 19.9375C108.399 19.6055 108.194 19.381 107.979 19.2638C107.764 19.1466 107.491 19.0685 107.159 19.0295V24.0676C107.159 24.8683 107.286 25.4248 107.54 25.7372C107.793 26.0302 108.252 26.1766 108.916 26.1766V26.7917C106.964 26.7136 105.694 26.6746 105.108 26.6746C104.444 26.6746 103.097 26.7136 101.066 26.7917V26.1766C101.75 26.1766 102.228 26.0302 102.501 25.7372C102.794 25.4248 102.941 24.8683 102.941 24.0676V7.37137C102.941 6.47309 102.794 5.81891 102.501 5.40883C102.228 4.99875 101.75 4.79371 101.066 4.79371V4.17858C101.691 4.23716 102.296 4.26646 102.882 4.26646C104.581 4.26646 106.007 4.12976 107.159 3.85637V18.4729C107.549 18.4339 107.881 18.3557 108.155 18.2386C108.448 18.1214 108.701 17.9457 108.916 17.7113L111.142 15.5437C111.787 14.8993 112.109 14.3037 112.109 13.757C112.109 13.3078 111.904 12.9563 111.494 12.7025C111.084 12.4291 110.537 12.2728 109.854 12.2338V11.648C110.928 11.7065 112.07 11.7358 113.281 11.7358C114.902 11.7358 116.044 11.7065 116.708 11.648V12.2338C115.556 12.4877 114.335 13.2395 113.046 14.4892L111.172 16.4225L116.093 24.6535ZM124.806 26.9968C123.557 26.9968 122.619 26.6746 121.994 26.0302C121.389 25.3857 121.086 24.5363 121.086 23.4818C121.086 22.603 121.311 21.8805 121.76 21.3142C122.229 20.7284 122.785 20.2792 123.43 19.9668C124.094 19.6543 124.933 19.3224 125.949 18.9709C127.023 18.5998 127.804 18.2679 128.292 17.975C128.8 17.6625 129.054 17.2427 129.054 16.7154V14.4307C129.054 13.6105 128.858 12.9758 128.468 12.5267C128.097 12.058 127.511 11.8237 126.71 11.8237C125.773 11.8237 125.06 12.058 124.572 12.5267C125.119 12.722 125.539 13.0149 125.832 13.4055C126.144 13.796 126.3 14.2549 126.3 14.7822C126.3 15.4461 126.076 15.9734 125.627 16.3639C125.177 16.7545 124.631 16.9497 123.986 16.9497C123.303 16.9497 122.775 16.7349 122.404 16.3053C122.033 15.8757 121.848 15.3387 121.848 14.6943C121.848 14.1475 121.975 13.6886 122.229 13.3176C122.502 12.927 122.912 12.5658 123.459 12.2338C123.986 11.9213 124.631 11.6772 125.392 11.5015C126.173 11.3257 127.023 11.2379 127.941 11.2379C128.897 11.2379 129.727 11.3355 130.43 11.5308C131.133 11.7261 131.719 12.058 132.188 12.5267C132.617 12.9563 132.901 13.4836 133.037 14.1085C133.194 14.7333 133.272 15.5828 133.272 16.6568V24.6242C133.272 25.0928 133.311 25.4248 133.389 25.6201C133.486 25.8154 133.662 25.913 133.916 25.913C134.209 25.913 134.56 25.747 134.971 25.415L135.263 25.913C134.385 26.6355 133.311 26.9968 132.041 26.9968C130.967 26.9968 130.216 26.782 129.786 26.3524C129.356 25.9228 129.132 25.3467 129.112 24.6242C128.136 26.2059 126.701 26.9968 124.806 26.9968ZM127.062 25.1221C127.823 25.1221 128.487 24.7218 129.054 23.9212V17.9164C128.819 18.3069 128.321 18.7365 127.56 19.2052C126.798 19.6934 126.222 20.1816 125.832 20.6698C125.441 21.158 125.246 21.861 125.246 22.7788C125.246 23.5794 125.412 24.175 125.744 24.5656C126.076 24.9366 126.515 25.1221 127.062 25.1221ZM72.4438 32.6725C73.4593 32.6725 74.2697 32.7701 74.875 32.9654C75.4804 33.1607 76.0955 33.4438 76.7204 33.8148C76.9352 33.932 77.1207 34.0296 77.277 34.1077C77.4527 34.1859 77.5992 34.2249 77.7163 34.2249C77.8921 34.2249 78.0288 34.1273 78.1264 33.932C78.2241 33.7172 78.3022 33.3852 78.3608 32.9361H79.0345C78.9368 34.2444 78.888 36.4706 78.888 39.6146H78.2143C78.1362 38.5601 77.8921 37.5544 77.482 36.5975C77.0914 35.6407 76.5251 34.8693 75.7831 34.2835C75.0606 33.6781 74.2111 33.3755 73.2347 33.3755C72.2778 33.3755 71.4967 33.6488 70.8914 34.1956C70.3055 34.7229 70.0126 35.4454 70.0126 36.3632C70.0126 37.0467 70.1591 37.6423 70.452 38.15C70.7449 38.6577 71.155 39.1264 71.6823 39.556C72.2095 39.9661 73.0199 40.5324 74.1135 41.2549L75.0508 41.8993C76.2029 42.6609 77.111 43.3249 77.7749 43.8912C78.4389 44.4575 78.9759 45.1214 79.386 45.883C79.8156 46.6251 80.0304 47.494 80.0304 48.49C80.0304 49.7397 79.7082 50.7942 79.0638 51.6535C78.4193 52.4932 77.5406 53.1278 76.4275 53.5574C75.3339 53.987 74.1135 54.2018 72.766 54.2018C71.6725 54.2018 70.7644 54.1042 70.0419 53.9089C69.3194 53.7136 68.6554 53.45 68.0501 53.118C67.6205 52.8447 67.2885 52.708 67.0542 52.708C66.8784 52.708 66.7417 52.8154 66.6441 53.0302C66.5464 53.2254 66.4683 53.5477 66.4097 53.9968H65.736C65.8142 52.7665 65.8532 50.1303 65.8532 46.088H66.5269C66.6636 48.2752 67.1518 50.0522 67.9915 51.4191C68.8312 52.7665 70.12 53.4402 71.858 53.4402C72.9125 53.4402 73.7815 53.1571 74.465 52.5908C75.1484 52.0245 75.4902 51.2141 75.4902 50.1596C75.4902 49.066 75.1387 48.1287 74.4357 47.3476C73.7327 46.5665 72.6196 45.6877 71.0964 44.7113C69.9247 43.9497 68.9874 43.2858 68.2844 42.7195C67.5814 42.1532 67.0053 41.4892 66.5562 40.7277C66.1071 39.9466 65.8825 39.0483 65.8825 38.0328C65.8825 36.8612 66.1754 35.875 66.7613 35.0744C67.3666 34.2542 68.1673 33.6488 69.1632 33.2583C70.1591 32.8677 71.2526 32.6725 72.4438 32.6725ZM83.6914 31.0907C84.5115 31.0907 85.156 31.2957 85.6246 31.7058C86.1128 32.0964 86.3569 32.6432 86.3569 33.3462C86.3569 34.0492 86.1128 34.6057 85.6246 35.0158C85.156 35.4063 84.5115 35.6016 83.6914 35.6016C82.8712 35.6016 82.217 35.4063 81.7288 35.0158C81.2602 34.6057 81.0258 34.0492 81.0258 33.3462C81.0258 32.6432 81.2602 32.0964 81.7288 31.7058C82.217 31.2957 82.8712 31.0907 83.6914 31.0907ZM85.9761 51.0676C85.9761 51.8683 86.1128 52.4248 86.3862 52.7372C86.6791 53.0302 87.1673 53.1766 87.8508 53.1766V53.7917C85.898 53.7136 84.5994 53.6746 83.955 53.6746C83.3496 53.6746 81.9925 53.7136 79.8835 53.7917V53.1766C80.5865 53.1766 81.0747 53.0302 81.348 52.7372C81.6214 52.4248 81.7581 51.8683 81.7581 51.0676V41.8407C81.7581 40.9425 81.6214 40.2883 81.348 39.8782C81.0747 39.4681 80.5865 39.2631 79.8835 39.2631V38.648C80.5083 38.7065 81.1137 38.7358 81.6995 38.7358C83.4375 38.7358 84.863 38.5991 85.9761 38.3257V51.0676ZM94.6883 38.2379C95.4109 38.2379 96.0943 38.316 96.7388 38.4722C97.3832 38.6284 97.9202 38.8432 98.3498 39.1166C98.8575 39.4291 99.2481 39.8294 99.5215 40.3176C99.8144 40.7862 99.9608 41.3037 99.9608 41.87C99.9608 42.5535 99.746 43.1198 99.3164 43.569C98.8868 43.9986 98.3303 44.2134 97.6468 44.2134C96.9633 44.2134 96.4165 44.0181 96.0065 43.6275C95.5964 43.237 95.3913 42.7097 95.3913 42.0458C95.3913 41.46 95.5769 40.9522 95.9479 40.5226C96.3189 40.093 96.7778 39.8001 97.3246 39.6439C97.1684 39.4291 96.9243 39.2631 96.5923 39.1459C96.2799 39.0092 95.9381 38.9409 95.5671 38.9409C94.3954 38.9409 93.4776 39.5853 92.8137 40.8741C92.1693 42.1434 91.847 43.8131 91.847 45.883C91.847 47.9725 92.2181 49.4761 92.9601 50.3939C93.7022 51.3117 94.6298 51.7706 95.7428 51.7706C96.4068 51.7706 97.0707 51.5949 97.7347 51.2434C98.4181 50.8919 99.0333 50.2767 99.58 49.398L100.078 49.5737C99.6874 50.8431 99.004 51.9366 98.0276 52.8544C97.0512 53.7527 95.7917 54.2018 94.249 54.2018C92.2376 54.2018 90.5973 53.5379 89.328 52.21C88.0587 50.8821 87.424 48.9098 87.424 46.2931C87.424 44.5746 87.7364 43.1101 88.3613 41.8993C88.9862 40.6886 89.8454 39.7806 90.939 39.1752C92.0326 38.5503 93.2823 38.2379 94.6883 38.2379ZM114.434 51.6535C114.746 52.1221 115 52.4736 115.195 52.708C115.391 52.9228 115.644 53.079 115.957 53.1766V53.7917C114.395 53.7136 113.369 53.6746 112.881 53.6746C112.237 53.6746 110.977 53.7136 109.103 53.7917V53.1766C109.376 53.1766 109.591 53.1278 109.747 53.0302C109.903 52.9325 109.981 52.7958 109.981 52.6201C109.981 52.5224 109.933 52.376 109.835 52.1807L106.935 46.9375C106.74 46.6055 106.535 46.381 106.32 46.2638C106.105 46.1466 105.832 46.0685 105.5 46.0295V51.0676C105.5 51.8683 105.627 52.4248 105.88 52.7372C106.134 53.0302 106.593 53.1766 107.257 53.1766V53.7917C105.304 53.7136 104.035 53.6746 103.449 53.6746C102.785 53.6746 101.438 53.7136 99.407 53.7917V53.1766C100.091 53.1766 100.569 53.0302 100.842 52.7372C101.135 52.4248 101.282 51.8683 101.282 51.0676V34.3714C101.282 33.4731 101.135 32.8189 100.842 32.4088C100.569 31.9987 100.091 31.7937 99.407 31.7937V31.1786C100.032 31.2372 100.637 31.2665 101.223 31.2665C102.922 31.2665 104.348 31.1298 105.5 30.8564V45.4729C105.89 45.4339 106.222 45.3557 106.496 45.2386C106.789 45.1214 107.042 44.9457 107.257 44.7113L109.483 42.5437C110.128 41.8993 110.45 41.3037 110.45 40.757C110.45 40.3078 110.245 39.9563 109.835 39.7025C109.425 39.4291 108.878 39.2728 108.195 39.2338V38.648C109.269 38.7065 110.411 38.7358 111.622 38.7358C113.242 38.7358 114.385 38.7065 115.049 38.648V39.2338C113.897 39.4877 112.676 40.2395 111.387 41.4892L109.513 43.4225L114.434 51.6535ZM143.765 33.1411C144.683 33.1411 145.435 33.1118 146.021 33.0532V33.6391C145.533 33.8344 145.054 34.2152 144.586 34.7815C144.136 35.3282 143.756 36.1093 143.443 37.1248L138.288 53.8503C138.073 53.8308 137.731 53.821 137.263 53.821C136.794 53.821 136.452 53.8308 136.237 53.8503L131.932 40.7862L127.596 53.8503C127.382 53.8308 127.04 53.821 126.571 53.821C126.103 53.821 125.761 53.8308 125.546 53.8503L118.985 35.5137C118.75 34.8693 118.467 34.4007 118.135 34.1077C117.803 33.8148 117.471 33.6586 117.139 33.6391V33.0532C118.311 33.1118 119.766 33.1411 121.504 33.1411C123.144 33.1411 124.345 33.1118 125.107 33.0532V33.6391C124.423 33.7367 124.081 34.1175 124.081 34.7815C124.081 35.0939 124.169 35.5333 124.345 36.0996L128.622 48.49L131.58 39.761L130.086 35.2208C129.891 34.6545 129.657 34.264 129.383 34.0492C129.129 33.8148 128.827 33.6781 128.475 33.6391V33.0532C129.569 33.1118 130.965 33.1411 132.664 33.1411C134.578 33.1411 135.984 33.1118 136.882 33.0532V33.6391C136.179 33.6586 135.671 33.7465 135.359 33.9027C135.046 34.0394 134.89 34.3128 134.89 34.7229C134.89 35.0744 134.988 35.5333 135.183 36.0996L139.196 48.3435L141.979 39.4974C142.428 38.0328 142.652 36.9002 142.652 36.0996C142.652 35.2599 142.437 34.6545 142.008 34.2835C141.598 33.8929 140.973 33.6781 140.133 33.6391V33.0532C141.461 33.1118 142.672 33.1411 143.765 33.1411ZM147.469 31.0907C148.29 31.0907 148.934 31.2957 149.403 31.7058C149.891 32.0964 150.135 32.6432 150.135 33.3462C150.135 34.0492 149.891 34.6057 149.403 35.0158C148.934 35.4063 148.29 35.6016 147.469 35.6016C146.649 35.6016 145.995 35.4063 145.507 35.0158C145.038 34.6057 144.804 34.0492 144.804 33.3462C144.804 32.6432 145.038 32.0964 145.507 31.7058C145.995 31.2957 146.649 31.0907 147.469 31.0907ZM149.754 51.0676C149.754 51.8683 149.891 52.4248 150.164 52.7372C150.457 53.0302 150.945 53.1766 151.629 53.1766V53.7917C149.676 53.7136 148.377 53.6746 147.733 53.6746C147.128 53.6746 145.77 53.7136 143.661 53.7917V53.1766C144.364 53.1766 144.853 53.0302 145.126 52.7372C145.399 52.4248 145.536 51.8683 145.536 51.0676V41.8407C145.536 40.9425 145.399 40.2883 145.126 39.8782C144.853 39.4681 144.364 39.2631 143.661 39.2631V38.648C144.286 38.7065 144.892 38.7358 145.478 38.7358C147.216 38.7358 148.641 38.5991 149.754 38.3257V51.0676ZM158.466 38.2379C159.189 38.2379 159.872 38.316 160.517 38.4722C161.161 38.6284 161.698 38.8432 162.128 39.1166C162.636 39.4291 163.026 39.8294 163.299 40.3176C163.592 40.7862 163.739 41.3037 163.739 41.87C163.739 42.5535 163.524 43.1198 163.094 43.569C162.665 43.9986 162.108 44.2134 161.425 44.2134C160.741 44.2134 160.195 44.0181 159.784 43.6275C159.374 43.237 159.169 42.7097 159.169 42.0458C159.169 41.46 159.355 40.9522 159.726 40.5226C160.097 40.093 160.556 39.8001 161.103 39.6439C160.946 39.4291 160.702 39.2631 160.37 39.1459C160.058 39.0092 159.716 38.9409 159.345 38.9409C158.173 38.9409 157.256 39.5853 156.592 40.8741C155.947 42.1434 155.625 43.8131 155.625 45.883C155.625 47.9725 155.996 49.4761 156.738 50.3939C157.48 51.3117 158.408 51.7706 159.521 51.7706C160.185 51.7706 160.849 51.5949 161.513 51.2434C162.196 50.8919 162.811 50.2767 163.358 49.398L163.856 49.5737C163.465 50.8431 162.782 51.9366 161.806 52.8544C160.829 53.7527 159.57 54.2018 158.027 54.2018C156.016 54.2018 154.375 53.5379 153.106 52.21C151.837 50.8821 151.202 48.9098 151.202 46.2931C151.202 44.5746 151.514 43.1101 152.139 41.8993C152.764 40.6886 153.623 39.7806 154.717 39.1752C155.811 38.5503 157.06 38.2379 158.466 38.2379ZM178.212 51.6535C178.524 52.1221 178.778 52.4736 178.973 52.708C179.169 52.9228 179.422 53.079 179.735 53.1766V53.7917C178.173 53.7136 177.147 53.6746 176.659 53.6746C176.015 53.6746 174.755 53.7136 172.881 53.7917V53.1766C173.154 53.1766 173.369 53.1278 173.525 53.0302C173.681 52.9325 173.759 52.7958 173.759 52.6201C173.759 52.5224 173.711 52.376 173.613 52.1807L170.713 46.9375C170.518 46.6055 170.313 46.381 170.098 46.2638C169.883 46.1466 169.61 46.0685 169.278 46.0295V51.0676C169.278 51.8683 169.405 52.4248 169.659 52.7372C169.912 53.0302 170.371 53.1766 171.035 53.1766V53.7917C169.082 53.7136 167.813 53.6746 167.227 53.6746C166.563 53.6746 165.216 53.7136 163.185 53.7917V53.1766C163.869 53.1766 164.347 53.0302 164.62 52.7372C164.913 52.4248 165.06 51.8683 165.06 51.0676V34.3714C165.06 33.4731 164.913 32.8189 164.62 32.4088C164.347 31.9987 163.869 31.7937 163.185 31.7937V31.1786C163.81 31.2372 164.415 31.2665 165.001 31.2665C166.7 31.2665 168.126 31.1298 169.278 30.8564V45.4729C169.668 45.4339 170 45.3557 170.274 45.2386C170.567 45.1214 170.82 44.9457 171.035 44.7113L173.261 42.5437C173.906 41.8993 174.228 41.3037 174.228 40.757C174.228 40.3078 174.023 39.9563 173.613 39.7025C173.203 39.4291 172.656 39.2728 171.973 39.2338V38.648C173.047 38.7065 174.189 38.7358 175.4 38.7358C177.02 38.7358 178.163 38.7065 178.827 38.648V39.2338C177.675 39.4877 176.454 40.2395 175.165 41.4892L173.291 43.4225L178.212 51.6535Z" fill="white"/>
<rect width="57" height="57" fill="white"/>
<g clip-path="url(#clip0_14:77)">
<path d="M31.9272 18.1716C31.9272 16.9531 32.5586 16.1198 33.4992 15.0149C33.7389 14.7432 34.0839 14.5875 34.4462 14.5875C34.8086 14.5875 35.1535 14.7432 35.3932 15.0149C36.3402 16.1071 36.9716 16.9468 36.9652 18.1716C37.3835 17.5063 37.6026 16.7352 37.5966 15.9493C37.5966 14.5983 35.9804 12.4518 34.4399 10.8987C32.8995 12.4833 31.2833 14.6298 31.2833 15.9493C31.2811 16.7364 31.5045 17.5076 31.9272 18.1716Z" fill="#383838"/>
<path d="M20.5633 44.2833C25.2541 44.2833 28.1393 42.8123 28.1393 41.7579V41.1266C27.7557 39.9206 27.5431 38.6668 27.5079 37.4018C27.4969 36.9399 27.7391 36.5089 28.1393 36.278V22.1867C28.1393 21.3597 26.3337 20.2928 23.297 19.8508C22.7084 20.3846 21.9785 20.7375 21.1946 20.8673V22.1867C21.1946 22.5354 20.912 22.8181 20.5633 22.8181C20.2146 22.8181 19.932 22.5354 19.932 22.1867V20.8673C19.1481 20.7375 18.4182 20.3846 17.8297 19.8508C14.793 20.2928 12.9874 21.3597 12.9874 22.1867V41.7579C12.9874 42.8123 15.8725 44.2833 20.5633 44.2833ZM18.6693 34.182C18.6693 35.228 17.8214 36.076 16.7753 36.076C15.7293 36.076 14.8814 35.228 14.8814 34.182V31.6567C14.8814 31.308 15.164 31.0254 15.5127 31.0254C15.8614 31.0254 16.144 31.308 16.144 31.6567V34.182C16.144 34.5307 16.4267 34.8133 16.7753 34.8133C17.124 34.8133 17.4067 34.5307 17.4067 34.182V32.9193C17.4067 32.5707 17.6893 32.288 18.038 32.288C18.3867 32.288 18.6693 32.5707 18.6693 32.9193V34.182ZM24.9826 39.2326C24.9826 40.2787 24.1347 41.1266 23.0886 41.1266C22.0426 41.1266 21.1946 40.2787 21.1946 39.2326V36.7073C21.1946 36.3586 21.4773 36.076 21.826 36.076C22.1746 36.076 22.4573 36.3586 22.4573 36.7073V39.2326C22.4573 39.5813 22.74 39.864 23.0886 39.864C23.4373 39.864 23.72 39.5813 23.72 39.2326V37.97C23.72 37.6213 24.0026 37.3386 24.3513 37.3386C24.7 37.3386 24.9826 37.6213 24.9826 37.97V39.2326ZM26.2453 31.6567C26.2453 32.7027 25.3973 33.5507 24.3513 33.5507C23.3053 33.5507 22.4573 32.7027 22.4573 31.6567V30.394C22.4573 30.0454 22.74 29.7627 23.0886 29.7627C23.4373 29.7627 23.72 30.0454 23.72 30.394V31.6567C23.72 32.0054 24.0026 32.288 24.3513 32.288C24.7 32.288 24.9826 32.0054 24.9826 31.6567V29.1314C24.9826 28.7827 25.2653 28.5 25.614 28.5C25.9626 28.5 26.2453 28.7827 26.2453 29.1314V31.6567ZM14.2879 24.2449C14.3461 24.0872 14.4648 23.9592 14.6176 23.8892C14.7705 23.8193 14.945 23.8133 15.1023 23.8724C18.6568 24.9929 22.4699 24.9929 26.0243 23.8724C26.1817 23.8133 26.3561 23.8193 26.509 23.8892C26.6619 23.9592 26.7806 24.0872 26.8387 24.2449C26.8979 24.4022 26.8918 24.5767 26.8219 24.7296C26.752 24.8824 26.624 25.0011 26.4662 25.0593C22.6253 26.2778 18.5013 26.2778 14.6604 25.0593C14.5027 25.0011 14.3747 24.8824 14.3047 24.7296C14.2348 24.5767 14.2288 24.4022 14.2879 24.2449Z" fill="#383838"/>
<path d="M34.4525 15.8735C34.1221 16.2595 33.8144 16.6642 33.5308 17.0857C33.0613 17.7159 33.0795 18.5844 33.575 19.1943C34.7682 20.5327 36.4412 18.6577 35.3869 17.0857C35.1001 16.6632 34.7881 16.2584 34.4525 15.8735Z" fill="#383838"/>
<path d="M23.7199 15.9493C23.7199 14.5983 22.1037 12.4518 20.5633 10.8987C19.0228 12.4833 17.4066 14.6298 17.4066 15.9493C17.4006 16.7352 17.6197 17.5063 18.0379 18.1716C18.0379 16.9089 18.6693 16.1071 19.61 15.0149C19.8496 14.7432 20.1946 14.5875 20.5569 14.5875C20.9193 14.5875 21.2642 14.7432 21.5039 15.0149C22.4004 16.0566 23.0823 16.9089 23.076 18.1716C23.4987 17.5076 23.7221 16.7364 23.7199 15.9493Z" fill="#383838"/>
<path d="M20.5633 15.8735C20.2354 16.2615 19.9277 16.666 19.6415 17.0857C19.172 17.7159 19.1902 18.5844 19.6857 19.1943C20.8663 20.5264 22.5583 18.6703 21.4976 17.0857C21.2134 16.6614 20.9013 16.2564 20.5633 15.8735Z" fill="#383838"/>
<path d="M39.1938 46.1774C40.526 46.1458 43.8467 45.8554 45.9301 43.8351C48.0135 41.8149 48.3039 38.6014 48.3418 37.3387C47.0097 37.3766 43.6889 37.667 41.6055 39.6873C39.5221 41.7075 39.2254 44.9147 39.1938 46.1774ZM42.3505 43.652C44.3455 42.9891 45.5071 41.878 46.0627 39.6052C46.1191 39.3864 46.2879 39.2143 46.5056 39.1538C46.7233 39.0932 46.9567 39.1534 47.118 39.3116C47.2793 39.4698 47.3439 39.7021 47.2875 39.9209C46.5867 42.6293 45.122 44.075 42.7482 44.8516C42.417 44.9594 42.061 44.7786 41.9528 44.4475C41.8419 44.1253 42.0067 43.7732 42.3252 43.652H42.3505Z" fill="#383838"/>
<path d="M40.4249 37.1178C40.2782 37.2903 40.0507 37.3715 39.828 37.3308C39.6052 37.2901 39.4211 37.1337 39.345 36.9205C39.2689 36.7072 39.3123 36.4696 39.4589 36.297C39.8007 35.9064 40.1768 35.5472 40.5827 35.2238C40.0202 34.1673 39.3335 33.1817 38.5372 32.2881C37.7635 33.2005 37.0864 34.1907 36.5169 35.2427C36.9099 35.5629 37.2753 35.9156 37.6091 36.297C37.8358 36.562 37.8047 36.9606 37.5397 37.1872C37.2747 37.4138 36.8761 37.3827 36.6495 37.1178C35.512 35.9006 34.1132 34.9573 32.5585 34.3588C32.3118 35.0558 32.1217 35.7715 31.9903 36.4991C35.551 37.3766 37.5776 39.3211 38.5814 42.4335C39.5852 39.3148 41.6054 37.3829 45.1283 36.5117C44.9985 35.7776 44.8084 35.0554 44.5601 34.3525C42.9903 34.9497 41.5764 35.8952 40.4249 37.1178Z" fill="#383838"/>
<path d="M35.5068 39.6873C33.8211 38.0521 30.9549 37.3387 28.7705 37.3387C28.8084 38.6014 29.1114 41.8149 31.1822 43.8225C33.2529 45.8301 36.5864 46.1395 37.9185 46.1774C37.8869 44.9147 37.6091 41.6949 35.5068 39.6873Z" fill="#383838"/>
<path d="M29.402 22.1867V24.0113C32.8445 24.9906 36.4982 24.9423 39.9136 23.8724C40.071 23.8133 40.2454 23.8193 40.3983 23.8892C40.5511 23.9592 40.6698 24.0872 40.728 24.2449C40.7871 24.4022 40.7811 24.5767 40.7112 24.7296C40.6412 24.8824 40.5132 25.0011 40.3555 25.0593C36.8042 26.1853 33.0068 26.2838 29.402 25.3434V36.1076C29.7871 36.1076 30.2353 36.177 30.7278 36.2528C30.8741 35.4623 31.0853 34.6853 31.3591 33.9295C31.475 33.6063 31.7175 33.3442 32.0308 33.2037C32.344 33.0631 32.701 33.0562 33.0195 33.1845C33.8813 33.5287 34.7098 33.9514 35.4943 34.4472C36.0862 33.3705 36.7955 32.3626 37.6092 31.442C37.8418 31.1762 38.1778 31.0238 38.531 31.0238C38.8842 31.0238 39.2201 31.1762 39.4527 31.442C40.2754 32.3644 40.9912 33.3767 41.5866 34.4598L42.0285 34.182V22.1867C42.0285 21.3597 40.2229 20.2928 37.1862 19.8508C36.5977 20.3846 35.8678 20.7375 35.0839 20.8673V22.1867C35.0839 22.5354 34.8013 22.8181 34.4526 22.8181C34.1039 22.8181 33.8213 22.5354 33.8213 22.1867V20.8673C33.0374 20.7375 32.3075 20.3846 31.7189 19.8508C30.6739 19.9805 29.6494 20.2414 28.6696 20.6274C29.1152 21.0262 29.3796 21.5891 29.402 22.1867Z" fill="#383838"/>
</g>
<defs>
<clipPath id="clip0_14:77">
<rect width="35.3544" height="35.3544" fill="white" transform="translate(12.9874 10.8229)"/>
</clipPath>
</defs>
</svg>
